<?xml version="1.0" encoding="UTF-8" standalone="no"?>
<svg width="22px" height="22px" viewBox="0 0 22 22" version="1.1" xmlns="http://www.w3.org/2000/svg" xmlns:xlink="http://www.w3.org/1999/xlink" xmlns:sketch="http://www.bohemiancoding.com/sketch/ns">
    <!-- Generator: Sketch 3.4 (15575) - http://www.bohemiancoding.com/sketch -->
    <title>Artboard 1</title>
    <desc>Created with Sketch.</desc>
    <defs></defs>
    <g id="2-invoices-copy" stroke="none" stroke-width="1" fill="none" fill-rule="evenodd" sketch:type="MSPage">
        <g id="Artboard-1" sketch:type="MSArtboardGroup">
            <path d="M0,0 L1,0 L1,22 L0,22 L0,0 Z M1,21 L12,21 L12,22 L1,22 L1,21 Z M1,0 L18,0 L18,1 L1,1 L1,0 Z M17,1 L18,1 L18,12 L17,12 L17,1 Z" id="Rectangle-28" fill="#B4B7BB" sketch:type="MSShapeGroup"></path>
            <path d="M3,3 L4,3 L4,19 L3,19 L3,3 Z M4,18 L12,18 L12,19 L4,19 L4,18 Z M4,15 L7,15 L7,16 L4,16 L4,15 Z M7,3 L8,3 L8,18 L7,18 L7,3 Z M4,3 L7,3 L7,4 L4,4 L4,3 Z M4,6 L7,6 L7,7 L4,7 L4,6 Z M4,9 L7,9 L7,10 L4,10 L4,9 Z M4,12 L7,12 L7,13 L4,13 L4,12 Z M8,3 L15,3 L15,4 L8,4 L8,3 Z M14,4 L15,4 L15,12 L14,12 L14,4 Z M8,6 L14,6 L14,7 L8,7 L8,6 Z M8,9 L14,9 L14,10 L8,10 L8,9 Z M8,12 L12,12 L12,13 L8,13 L8,12 Z M8,15 L12,15 L12,16 L8,16 L8,15 Z" id="Rectangle-32" fill="#DADEE3" sketch:type="MSShapeGroup"></path>
            <path d="M12,12 L13,12 L13,22 L12,22 L12,12 Z M13,21 L22,21 L22,22 L13,22 L13,21 Z M21,12 L22,12 L22,21 L21,21 L21,12 Z M13,12 L21,12 L21,13 L13,13 L13,12 Z M13,15 L21,15 L21,16 L13,16 L13,15 Z M13,18 L21,18 L21,19 L13,19 L13,18 Z" id="Rectangle-46" fill="#C6B816" sketch:type="MSShapeGroup"></path>
            <rect id="Rectangle-52" fill="#F8E71C" sketch:type="MSShapeGroup" x="13" y="13" width="8" height="2"></rect>
            <rect id="Rectangle-53" fill="#F8E71C" sketch:type="MSShapeGroup" x="13" y="16" width="8" height="2"></rect>
            <rect id="Rectangle-54" fill="#F8E71C" sketch:type="MSShapeGroup" x="13" y="19" width="8" height="2"></rect>
            <rect id="Rectangle-41" fill="#FFFFFF" sketch:type="MSShapeGroup" x="1" y="1" width="2" height="20"></rect>
            <rect id="Rectangle-42" fill="#FFFFFF" sketch:type="MSShapeGroup" x="3" y="19" width="9" height="2"></rect>
            <rect id="Rectangle-43" fill="#FFFFFF" sketch:type="MSShapeGroup" x="4" y="16" width="3" height="2"></rect>
            <rect id="Rectangle-44" fill="#FFFFFF" sketch:type="MSShapeGroup" x="4" y="13" width="3" height="2"></rect>
            <rect id="Rectangle-45" fill="#FFFFFF" sketch:type="MSShapeGroup" x="4" y="10" width="3" height="2"></rect>
            <rect id="Rectangle-46" fill="#FFFFFF" sketch:type="MSShapeGroup" x="4" y="7" width="3" height="2"></rect>
            <rect id="Rectangle-47" fill="#FFFFFF" sketch:type="MSShapeGroup" x="4" y="4" width="3" height="2"></rect>
            <rect id="Rectangle-48" fill="#FFFFFF" sketch:type="MSShapeGroup" x="3" y="1" width="14" height="2"></rect>
            <rect id="Rectangle-49" fill="#FFFFFF" sketch:type="MSShapeGroup" x="15" y="3" width="2" height="9"></rect>
            <rect id="Rectangle-50" fill="#FFFFFF" sketch:type="MSShapeGroup" x="8" y="4" width="6" height="2"></rect>
            <rect id="Rectangle-51" fill="#FFFFFF" sketch:type="MSShapeGroup" x="8" y="7" width="6" height="2"></rect>
            <rect id="Rectangle-52" fill="#FFFFFF" sketch:type="MSShapeGroup" x="8" y="10" width="6" height="2"></rect>
            <rect id="Rectangle-53" fill="#FFFFFF" sketch:type="MSShapeGroup" x="8" y="13" width="4" height="2"></rect>
            <rect id="Rectangle-54" fill="#FFFFFF" sketch:type="MSShapeGroup" x="8" y="16" width="4" height="2"></rect>
        </g>
    </g>
</svg>