<?xml version="1.0" encoding="UTF-8" standalone="no"?>
<svg width="22px" height="22px" viewBox="0 0 22 22" version="1.1" xmlns="http://www.w3.org/2000/svg" xmlns:xlink="http://www.w3.org/1999/xlink" xmlns:sketch="http://www.bohemiancoding.com/sketch/ns">
    <!-- Generator: Sketch 3.4 (15575) - http://www.bohemiancoding.com/sketch -->
    <title>Artboard 1</title>
    <desc>Created with Sketch.</desc>
    <defs></defs>
    <g id="products" stroke="none" stroke-width="1" fill="none" fill-rule="evenodd" sketch:type="MSPage">
        <g id="Artboard-1" sketch:type="MSArtboardGroup">
            <path d="M0,0 L1,0 L1,22 L0,22 L0,0 Z M1,21 L22,21 L22,22 L1,22 L1,21 Z M21,0 L22,0 L22,21 L21,21 L21,0 Z M1,0 L21,0 L21,1 L1,1 L1,0 Z M9,1 L10,1 L10,3 L9,3 L9,1 Z M13,1 L14,1 L14,3 L13,3 L13,1 Z M3,3 L16,3 L16,4 L3,4 L3,3 Z M15,4 L16,4 L16,11 L15,11 L15,4 Z M3,4 L4,4 L4,11 L3,11 L3,4 Z M3,11 L16,11 L16,12 L3,12 L3,11 Z M9,12 L10,12 L10,21 L9,21 L9,12 Z M13,12 L14,12 L14,21 L13,21 L13,12 Z" id="Rectangle-7" fill="#B09B78" sketch:type="MSShapeGroup"></path>
            <rect id="Rectangle-13" fill="#E4D1B1" sketch:type="MSShapeGroup" x="10" y="1" width="3" height="2"></rect>
            <rect id="Rectangle-20" fill="#E4D1B1" sketch:type="MSShapeGroup" x="10" y="12" width="3" height="9"></rect>
            <path d="M1,1 L9,1 L9,3 L1,3 L1,1 Z M1,3 L3,3 L3,12 L1,12 L1,3 Z M1,12 L9,12 L9,21 L1,21 L1,12 Z" id="Rectangle-21" fill="#DCC297" sketch:type="MSShapeGroup"></path>
            <path d="M14,1 L21,1 L21,3 L14,3 L14,1 Z M16,3 L21,3 L21,12 L16,12 L16,3 Z M14,12 L21,12 L21,21 L14,21 L14,12 Z" id="Rectangle-24" fill="#DCC297" sketch:type="MSShapeGroup"></path>
            <rect id="Rectangle-27" fill="#FFFFFF" sketch:type="MSShapeGroup" x="4" y="4" width="11" height="7"></rect>
            <rect id="Rectangle-28" fill="#7D705B" sketch:type="MSShapeGroup" x="5" y="5" width="6" height="1"></rect>
            <rect id="Rectangle-29" fill="#7D705B" sketch:type="MSShapeGroup" x="5" y="7" width="8" height="1"></rect>
            <rect id="Rectangle-30" fill="#7D705B" sketch:type="MSShapeGroup" x="5" y="9" width="6" height="1"></rect>
        </g>
    </g>
</svg>