<?xml version="1.0" encoding="UTF-8" standalone="no"?>
<svg width="22px" height="22px" viewBox="0 0 22 22" version="1.1" xmlns="http://www.w3.org/2000/svg" xmlns:xlink="http://www.w3.org/1999/xlink" xmlns:sketch="http://www.bohemiancoding.com/sketch/ns">
    <!-- Generator: Sketch 3.4.2 (15855) - http://www.bohemiancoding.com/sketch -->
    <title>Artboard 1</title>
    <desc>Created with Sketch.</desc>
    <defs></defs>
    <g id="Page-1-Copy" stroke="none" stroke-width="1" fill="none" fill-rule="evenodd" sketch:type="MSPage">
        <g id="Artboard-1" sketch:type="MSArtboardGroup">
            <g id="Group" sketch:type="MSLayerGroup">
                <rect id="Rectangle-16" fill="#B4B7BB" sketch:type="MSShapeGroup" x="0" y="0" width="1" height="22"></rect>
                <rect id="Rectangle-17" fill="#B4B7BB" sketch:type="MSShapeGroup" x="1" y="21" width="14" height="1"></rect>
                <rect id="Rectangle-18" fill="#B4B7BB" sketch:type="MSShapeGroup" x="17" y="0" width="1" height="16"></rect>
                <rect id="Rectangle-19" fill="#B4B7BB" sketch:type="MSShapeGroup" x="1" y="0" width="16" height="1"></rect>
                <rect id="Rectangle-24" fill="#FFFFFF" sketch:type="MSShapeGroup" x="1" y="1" width="16" height="20"></rect>
                <path d="M14,9 L14,7 L8,7 L8,6 L14,6 L14,4 L15,4 L15,12 L14,12 L14,10 L8,10 L8,9 L14,9 Z M3,3 L4,3 L4,19 L3,19 L3,3 Z M4,18 L15,18 L15,19 L4,19 L4,18 Z M14,13 L15,13 L15,15 L14,15 L14,13 Z M14,16 L15,16 L15,18 L14,18 L14,16 Z M4,15 L7,15 L7,16 L4,16 L4,15 Z M4,12 L7,12 L7,13 L4,13 L4,12 Z M4,9 L7,9 L7,10 L4,10 L4,9 Z M4,6 L7,6 L7,7 L4,7 L4,6 Z M4,3 L15,3 L15,4 L4,4 L4,3 Z M7,4 L8,4 L8,18 L7,18 L7,4 Z M8,12 L15,12 L15,13 L8,13 L8,12 Z M8,15 L15,15 L15,16 L8,16 L8,15 Z" id="Rectangle-19" fill="#DADEE3" sketch:type="MSShapeGroup"></path>
                <path d="M20.3433243,17.7453628 C20.4455948,17.3472345 20.5,16.9299549 20.5,16.5 C20.5,13.7441952 18.2614237,11.5 15.5,11.5 C12.7441952,11.5 10.5,13.7385763 10.5,16.5 C10.5,19.2558048 12.7385763,21.5 15.5,21.5 C16.3686334,21.5 17.1864374,21.2775932 17.8991546,20.8865092 L20.8060534,21.3432564 C21.3696067,21.4318048 21.639861,21.0789409 21.4378485,20.5595382 L20.3433243,17.7453628 Z" id="Rectangle-190" stroke="#A233B8" fill="#DB73F0" sketch:type="MSShapeGroup"></path>
            </g>
            <rect id="Rectangle-23" fill="#FFFFFF" sketch:type="MSShapeGroup" x="13" y="15.5" width="1" height="2"></rect>
            <rect id="Rectangle-23" fill="#FFFFFF" sketch:type="MSShapeGroup" x="16" y="15.5" width="1" height="2"></rect>
        </g>
    </g>
</svg>