<?xml version="1.0" encoding="UTF-8" standalone="no"?>
<svg width="21px" height="22px" viewBox="0 0 21 22" version="1.1" xmlns="http://www.w3.org/2000/svg" xmlns:xlink="http://www.w3.org/1999/xlink" xmlns:sketch="http://www.bohemiancoding.com/sketch/ns">
    <!-- Generator: Sketch 3.4.2 (15855) - http://www.bohemiancoding.com/sketch -->
    <title>Artboard 1</title>
    <desc>Created with Sketch.</desc>
    <defs></defs>
    <g id="Page-1" stroke="none" stroke-width="1" fill="none" fill-rule="evenodd" sketch:type="MSPage">
        <g id="Artboard-1" sketch:type="MSArtboardGroup">
            <g id="Group-Copy-34" sketch:type="MSLayerGroup">
                <rect id="Rectangle-146" fill="#6EB4F4" sketch:type="MSShapeGroup" x="1" y="0" width="20" height="22"></rect>
                <rect id="Rectangle-5" fill="#4A73A0" sketch:type="MSShapeGroup" x="1" y="0" width="20" height="1"></rect>
                <rect id="Rectangle-6" fill="#4A73A0" sketch:type="MSShapeGroup" x="20" y="1" width="1" height="21"></rect>
                <rect id="Rectangle-7" fill="#4A73A0" sketch:type="MSShapeGroup" x="1" y="21" width="19" height="1"></rect>
                <rect id="Rectangle-8" fill="#4A73A0" sketch:type="MSShapeGroup" x="1" y="17" width="1" height="4"></rect>
                <rect id="Rectangle-9" fill="#4A73A0" sketch:type="MSShapeGroup" x="1" y="8" width="1" height="6"></rect>
                <rect id="Rectangle-10" fill="#4A73A0" sketch:type="MSShapeGroup" x="1" y="1" width="1" height="4"></rect>
                <rect id="Rectangle-147" fill="#4A73A0" sketch:type="MSShapeGroup" x="0" y="5" width="3" height="3"></rect>
                <rect id="Rectangle-147-Copy" fill="#4A73A0" sketch:type="MSShapeGroup" x="0" y="14" width="3" height="3"></rect>
                <path d="M13.5233937,11.3834332 C14.2263221,11.6423921 14.7754556,12.0515859 14.9452807,12.6666667 L15,12.6666667 L15,16 L7,16 L7,12.6666667 L7.05471934,12.6666667 C7.22454438,12.0515859 7.77367794,11.6423921 8.47660625,11.3834332 C8.05263926,10.8179986 7.8,10.1063988 7.8,9.33333333 C7.8,7.49238417 9.2326888,6 11,6 C12.7673112,6 14.2,7.49238417 14.2,9.33333333 C14.2,10.1063988 13.9473607,10.8179986 13.5233937,11.3834332 Z" id="Oval-13-Copy" stroke="#4A73A0" fill="#FFFFFF" sketch:type="MSShapeGroup"></path>
            </g>
        </g>
    </g>
</svg>