<?xml version="1.0" encoding="UTF-8" standalone="no"?>
<svg width="22px" height="22px" viewBox="0 0 22 22" version="1.1" xmlns="http://www.w3.org/2000/svg" xmlns:xlink="http://www.w3.org/1999/xlink" xmlns:sketch="http://www.bohemiancoding.com/sketch/ns">
    <!-- Generator: Sketch 3.4 (15575) - http://www.bohemiancoding.com/sketch -->
    <title>Artboard 1</title>
    <desc>Created with Sketch.</desc>
    <defs></defs>
    <g id="expenses" stroke="none" stroke-width="1" fill="none" fill-rule="evenodd" sketch:type="MSPage">
        <g id="Artboard-1" sketch:type="MSArtboardGroup">
            <path d="M5,3 L17,3 L17,19 L5,19 L5,3 Z M6,4 L16,4 L16,19 L6,19 L6,4 Z" id="Rectangle-6" fill="#B4B7BB" sketch:type="MSShapeGroup"></path>
            <rect id="Rectangle-6" fill="#FFFFFF" sketch:type="MSShapeGroup" x="6" y="4" width="10" height="15"></rect>
            <path d="M1,17 L8,17 L8,21 L1,21 L1,17 Z M8,19 L14,19 L14,21 L8,21 L8,19 Z M14,17 L21,17 L21,21 L14,21 L14,17 Z" id="Rectangle-15" fill="#EAEAEA" sketch:type="MSShapeGroup"></path>
            <path d="M1,16 L9,16 L9,17 L1,17 L1,16 Z M8,17 L9,17 L9,19 L8,19 L8,17 Z M9,18 L14,18 L14,19 L9,19 L9,18 Z M13,16 L14,16 L14,18 L13,18 L13,16 Z M14,16 L21,16 L21,17 L14,17 L14,16 Z" id="Rectangle-13" fill="#B4B7BB" sketch:type="MSShapeGroup"></path>
            <path d="M0,0 L1,0 L1,22 L0,22 L0,0 Z M1,0 L21,0 L21,1 L1,1 L1,0 Z M21,0 L22,0 L22,22 L21,22 L21,0 Z M1,21 L21,21 L21,22 L1,22 L1,21 Z" id="Rectangle-3" fill="#B4B7BB" sketch:type="MSShapeGroup"></path>
            <rect id="Rectangle-6" fill="#EAEAEA" sketch:type="MSShapeGroup" x="1" y="1" width="4" height="15"></rect>
            <rect id="Rectangle-7" fill="#EAEAEA" sketch:type="MSShapeGroup" x="5" y="1" width="12" height="2"></rect>
            <rect id="Rectangle-8" fill="#EAEAEA" sketch:type="MSShapeGroup" x="17" y="1" width="4" height="15"></rect>
        </g>
    </g>
</svg>