<?xml version="1.0" encoding="UTF-8" standalone="no"?>
<svg width="22px" height="18px" viewBox="0 0 22 18" version="1.1" xmlns="http://www.w3.org/2000/svg" xmlns:xlink="http://www.w3.org/1999/xlink" xmlns:sketch="http://www.bohemiancoding.com/sketch/ns">
    <!-- Generator: Sketch 3.4 (15575) - http://www.bohemiancoding.com/sketch -->
    <title>Artboard 1</title>
    <desc>Created with Sketch.</desc>
    <defs></defs>
    <g id="reports" stroke="none" stroke-width="1" fill="none" fill-rule="evenodd" sketch:type="MSPage">
        <path d="M0,0 L1,0 L1,18 L0,18 L0,0 Z M1,17 L22,17 L22,18 L1,18 L1,17 Z M21,0 L22,0 L22,17 L21,17 L21,0 Z M1,0 L21,0 L21,1 L1,1 L1,0 Z" id="Rectangle-26" fill="#B4B7BB" sketch:type="MSShapeGroup"></path>
        <rect id="Rectangle-30" fill="#FFFFFF" sketch:type="MSShapeGroup" x="1" y="1" width="20" height="16"></rect>
        <g id="Artboard-1" sketch:type="MSArtboardGroup">
            <path d="M4,4 L5,4 L5,14 L4,14 L4,4 Z M5,13 L17,13 L17,14 L5,14 L5,13 Z M5,10 L17,10 L17,11 L5,11 L5,10 Z M5,7 L17,7 L17,8 L5,8 L5,7 Z M5,4 L18,4 L18,5 L5,5 L5,4 Z M17,5 L18,5 L18,6 L17,6 L17,5 Z M8,5 L9,5 L9,7 L8,7 L8,5 Z M11,5 L12,5 L12,7 L11,7 L11,5 Z M14,5 L15,5 L15,7 L14,7 L14,5 Z M8,8 L9,8 L9,10 L8,10 L8,8 Z M8,11 L9,11 L9,13 L8,13 L8,11 Z M11,8 L12,8 L12,10 L11,10 L11,8 Z M11,11 L12,11 L12,12 L11,12 L11,11 Z M14,8 L15,8 L15,10 L14,10 L14,8 Z M14,11 L15,11 L15,12 L14,12 L14,11 Z" id="Rectangle-11" fill="#DADEE3" sketch:type="MSShapeGroup"></path>
            <rect id="Rectangle-31" fill="#7A3FFF" sketch:type="MSShapeGroup" x="5" y="15" width="5" height="3"></rect>
            <rect id="Rectangle-32" fill="#B9A6ED" sketch:type="MSShapeGroup" x="6" y="16" width="3" height="1"></rect>
            <rect id="Rectangle-33" fill="#7A3FFF" sketch:type="MSShapeGroup" x="11" y="12" width="5" height="6"></rect>
            <rect id="Rectangle-34" fill="#B9A6ED" sketch:type="MSShapeGroup" x="12" y="13" width="3" height="4"></rect>
            <rect id="Rectangle-35" fill="#7A3FFF" sketch:type="MSShapeGroup" x="17" y="6" width="5" height="12"></rect>
            <rect id="Rectangle-36" fill="#B9A6ED" sketch:type="MSShapeGroup" x="18" y="7" width="3" height="10"></rect>
        </g>
    </g>
</svg>